<?xml version="1.0" encoding="UTF-8" standalone="no"?>
<svg
   xmlns:dc="http://purl.org/dc/elements/1.1/"
   xmlns:cc="http://creativecommons.org/ns#"
   xmlns:rdf="http://www.w3.org/1999/02/22-rdf-syntax-ns#"
   xmlns:svg="http://www.w3.org/2000/svg"
   xmlns="http://www.w3.org/2000/svg"
   xmlns:sodipodi="http://sodipodi.sourceforge.net/DTD/sodipodi-0.dtd"
   xmlns:inkscape="http://www.inkscape.org/namespaces/inkscape"
   id="Layer_1"
   data-name="Layer 1"
   viewBox="0 0 88.200125 88.200125"
   version="1.1"
   sodipodi:docname="paper.svg"
   width="88.200127"
   height="88.200127"
   inkscape:version="0.92.4 (5da689c313, 2019-01-14)">
  <metadata
     id="metadata35">
    <rdf:RDF>
      <cc:Work
         rdf:about="">
        <dc:format>image/svg+xml</dc:format>
        <dc:type
           rdf:resource="http://purl.org/dc/dcmitype/StillImage" />
      </cc:Work>
    </rdf:RDF>
  </metadata>
  <sodipodi:namedview
     pagecolor="#ffffff"
     bordercolor="#666666"
     borderopacity="1"
     objecttolerance="10"
     gridtolerance="10"
     guidetolerance="10"
     inkscape:pageopacity="0"
     inkscape:pageshadow="2"
     inkscape:window-width="1920"
     inkscape:window-height="1016"
     id="namedview33"
     showgrid="false"
     inkscape:zoom="5.3400704"
     inkscape:cx="-12.42111"
     inkscape:cy="54.901877"
     inkscape:window-x="0"
     inkscape:window-y="27"
     inkscape:window-maximized="1"
     inkscape:current-layer="Layer_1" />
  <defs
     id="defs4">
    <style
       id="style2">.cls-1{fill:none;}.cls-2{fill:#fff;}.cls-3{fill:#fa0;}.cls-4{fill:#aaa;}.cls-5{fill:#55f;}.cls-6{fill:#5f5;}.cls-7{fill:#67cbdf;}.cls-8{fill:#f55;}.cls-9{fill:#f5f;}.cls-10{fill:#ff5;}.cls-11{fill:#444;}</style>
  </defs>
  <title
     id="title6">PaperMC_final</title>
  <rect
     class="cls-1"
     width="100"
     height="100"
     id="rect8"
     x="-5.9317818"
     y="-5.899889"
     style="fill:none;stroke-width:0.05" />
  <rect
     class="cls-2"
     x="-14.129718"
     y="25.912741"
     width="66.804001"
     height="66.804001"
     transform="rotate(-27)"
     id="rect10"
     style="fill:#ffffff;stroke-width:0.05" />
  <rect
     class="cls-3"
     x="-11.0517"
     y="24.822523"
     width="66.804001"
     height="66.804001"
     transform="rotate(-24)"
     id="rect12"
     style="fill:#ffaa00;stroke-width:0.05" />
  <rect
     class="cls-4"
     x="-8.0352449"
     y="23.57316"
     width="66.804001"
     height="66.804001"
     transform="rotate(-21)"
     id="rect14"
     style="fill:#aaaaaa;stroke-width:0.05" />
  <rect
     class="cls-5"
     x="-5.0878086"
     y="22.16753"
     width="66.804001"
     height="66.804001"
     transform="rotate(-18)"
     id="rect16"
     style="fill:#5555ff;stroke-width:0.05" />
  <rect
     class="cls-6"
     x="-2.2183273"
     y="20.609535"
     width="66.804001"
     height="66.804001"
     transform="rotate(-15)"
     id="rect18"
     style="fill:#55ff55;stroke-width:0.05" />
  <rect
     class="cls-7"
     x="0.59890962"
     y="18.914127"
     width="66.95414"
     height="66.95414"
     transform="rotate(-12.094757)"
     id="rect20"
     style="fill:#67cbdf;stroke-width:0.05011237" />
  <rect
     class="cls-8"
     x="3.2566762"
     y="17.054203"
     width="66.804001"
     height="66.804001"
     transform="rotate(-9)"
     id="rect22"
     style="fill:#ff5555;stroke-width:0.05" />
  <rect
     class="cls-9"
     x="5.8467455"
     y="15.066092"
     width="66.804001"
     height="66.804001"
     transform="rotate(-6)"
     id="rect24"
     style="fill:#ff55ff;stroke-width:0.05" />
  <rect
     class="cls-10"
     x="8.3299799"
     y="12.945731"
     width="66.804001"
     height="66.804001"
     transform="rotate(-3)"
     id="rect26"
     style="fill:#ffff55;stroke-width:0.05" />
  <rect
     class="cls-11"
     x="10.698223"
     y="10.698133"
     width="66.804001"
     height="66.804001"
     id="rect28"
     style="fill:#444444;stroke-width:0.05" />
  <path
     class="cls-2"
     d="m 67.953696,22.737615 -6.8315,40.98999 c -0.08,0.507 -0.4,0.934 -0.854,1.2 a 1.734,1.734 0 0 1 -0.8275,0.2135 1.834,1.834 0 0 1 -0.6405,-0.1335 l -12.089,-4.937 -6.458,7.873 a 1.6575,1.6575 0 0 1 -1.3075,0.614 1.5215,1.5215 0 0 1 -0.587,-0.1065 1.703,1.703 0 0 1 -1.121,-1.6 v -9.315 l 23.057,-28.26049 -28.5265,24.68449 -10.541,-4.32299 c -0.614,-0.24 -1.014,-0.8 -1.0675,-1.4675 a 1.7245,1.7245 0 0 1 0.854,-1.5745 l 44.4045,-25.619 a 1.655,1.655 0 0 1 0.854,-0.24 1.7,1.7 0 0 1 0.9605,0.2935 1.729,1.729 0 0 1 0.721,1.708 z"
     id="path30"
     inkscape:connector-curvature="0"
     style="fill:#ffffff;stroke-width:0.05" />
</svg>
